<?xml version="1.0" encoding="UTF-8" standalone="no"?><svg xmlns:svg="http://www.w3.org/2000/svg" xmlns="http://www.w3.org/2000/svg" xmlns:xlink="http://www.w3.org/1999/xlink" version="1.0" width="250px" height="45px" viewBox="0 0 128 23" xml:space="preserve"><path fill="#cccccc" d="M58.381,6.59L51.06,11.337,55.6,11.5,70.9,6.645,83,6.811a1.958,1.958,0,0,0,1.424-1.1c0.373-.938-0.73-1.533-1.5-2.332S79.766,2.3,79.766,2.3L68.237,2.254l-6.546-2-3.208.121,1.884,2.413-6.8.16L50.733,0.332l-1.985-.021,1.3,3.3A8.913,8.913,0,0,0,50.1,5.12a3.575,3.575,0,0,0,.765,1.274Z"/><g><path fill="#cccccc" d="M44.75,23.927a5.641,5.641,0,0,1-5.661,5.689,5.634,5.634,0,0,1-1.025,0H16.444a6.079,6.079,0,0,1-.338-12.139,6.168,6.168,0,0,1-.606-2.662c0-3.808,3.506-6.894,7.831-6.894a7.891,7.891,0,0,1,7.261,4.312,7.2,7.2,0,0,1,2.787-.552c3.465,0,6.275,2.374,6.275,5.3a4.534,4.534,0,0,1-.156,1.174A5.734,5.734,0,0,1,44.75,23.927ZM110.5,13.571a3.273,3.273,0,0,1-3.306,3.28,3.336,3.336,0,0,1-.6,0H93.971a3.5,3.5,0,0,1-.2-7,3.519,3.519,0,0,1-.354-1.535c0-2.195,2.047-3.974,4.573-3.974a4.615,4.615,0,0,1,4.24,2.486,4.255,4.255,0,0,1,1.628-.318c2.023,0,3.664,1.369,3.664,3.057a2.581,2.581,0,0,1-.091.677A3.323,3.323,0,0,1,110.5,13.571ZM88.25,28.03a4.137,4.137,0,0,1-4.174,4.15,4.2,4.2,0,0,1-.756,0H67.382a4.432,4.432,0,0,1-.249-8.854,4.46,4.46,0,0,1-.447-1.942c0-2.777,2.585-5.029,5.773-5.029A5.826,5.826,0,0,1,77.813,19.5a5.355,5.355,0,0,1,2.055-.4c2.555,0,4.626,1.732,4.626,3.868a3.272,3.272,0,0,1-.115.856A4.2,4.2,0,0,1,88.25,28.03Zm-65-29.389a4.137,4.137,0,0,1-4.174,4.15,4.2,4.2,0,0,1-.756,0H2.382A4.407,4.407,0,0,1-2-1.64,4.41,4.41,0,0,1,2.133-6.064a4.46,4.46,0,0,1-.447-1.942c0-2.777,2.585-5.029,5.773-5.029a5.826,5.826,0,0,1,5.353,3.145,5.357,5.357,0,0,1,2.055-.4c2.555,0,4.626,1.732,4.626,3.868a3.273,3.273,0,0,1-.115.856A4.2,4.2,0,0,1,23.25-1.359ZM175,23.927a6.192,6.192,0,0,1-6.686,5.689h-21.62a6.079,6.079,0,0,1-.338-12.139,6.18,6.18,0,0,1-.6-2.662c0-3.808,3.506-6.894,7.831-6.894a7.89,7.89,0,0,1,7.261,4.312,7.2,7.2,0,0,1,2.788-.552c3.465,0,6.274,2.374,6.274,5.3a4.534,4.534,0,0,1-.156,1.174A5.734,5.734,0,0,1,175,23.927Zm65.75-10.356a3.273,3.273,0,0,1-3.306,3.28,3.336,3.336,0,0,1-.6,0H224.221a3.5,3.5,0,0,1-.2-7,3.514,3.514,0,0,1-.354-1.535c0-2.195,2.048-3.974,4.573-3.974a4.615,4.615,0,0,1,4.24,2.486,4.255,4.255,0,0,1,1.628-.318c2.023,0,3.664,1.369,3.664,3.057a2.581,2.581,0,0,1-.091.677A3.323,3.323,0,0,1,240.75,13.571ZM218.5,28.03a4.137,4.137,0,0,1-4.174,4.15,4.193,4.193,0,0,1-.755,0H197.632a4.432,4.432,0,0,1-.249-8.854,4.465,4.465,0,0,1-.446-1.942c0-2.777,2.584-5.029,5.773-5.029a5.825,5.825,0,0,1,5.353,3.146,5.36,5.36,0,0,1,2.055-.4c2.555,0,4.626,1.732,4.626,3.868a3.293,3.293,0,0,1-.115.856A4.2,4.2,0,0,1,218.5,28.03Zm-65-29.389a4.137,4.137,0,0,1-4.174,4.15,4.194,4.194,0,0,1-.755,0H132.632A4.407,4.407,0,0,1,128.25-1.64a4.41,4.41,0,0,1,4.133-4.423,4.465,4.465,0,0,1-.446-1.942c0-2.777,2.584-5.029,5.773-5.029a5.825,5.825,0,0,1,5.353,3.145,5.363,5.363,0,0,1,2.055-.4c2.555,0,4.626,1.732,4.626,3.868a3.294,3.294,0,0,1-.115.856A4.2,4.2,0,0,1,153.5-1.359Z"/>
<animateTransform attributeName="transform" type="translate" from="0 0" to="-130 0" dur="1800ms" repeatCount="indefinite"/></g></svg>
